<svg preserveAspectRatio="none" overflow="visible" style="display: block;" width="116.258" height="22.7321" viewBox="0 0 116.258 22.7321" fill="none" xmlns="http://www.w3.org/2000/svg">
<g id="Group">
<path id="Vector" d="M12.7266 22.3194C11.4141 21.7092 10.9922 20.8643 11.0625 18.8225C11.1094 16.851 10.7812 16.3112 9.07031 15.4898C6.75 14.3867 6.72656 12.65 9.04687 11.6174C10.7109 10.8663 11.0391 10.3031 11.0859 8.02654C11.1328 6.5245 11.2266 6.05511 11.6016 5.63266C13.1016 3.96633 15.5391 4.13062 16.6406 5.93776C17.5312 7.36939 16.9922 9.4347 15.5391 10.1623C15.1875 10.35 14.3672 10.5612 13.7578 10.6316C13.1484 10.7255 12.4219 10.9133 12.1641 11.0541C11.4375 11.4296 10.7812 12.6969 10.7812 13.7061C10.7812 14.4337 10.9453 14.7623 11.6953 15.5133C12.4219 16.2643 12.7734 16.4286 13.5 16.4286C17.2734 16.4286 18.4687 21.0051 15.0703 22.4367C14.1094 22.8592 13.9219 22.8357 12.7266 22.3194Z" fill="#BDBDBD"/>
<path id="Vector_2" d="M26.1797 19.8082C26.0859 19.7143 26.0156 15.7949 26.0156 11.101V2.58164H31.0547H36.0938V3.52041V4.45919H32.1094H28.125L28.0781 12.1337L28.0078 19.8316L27.1875 19.902C26.7188 19.949 26.2734 19.902 26.1797 19.8082Z" fill="#BDBDBD"/>
<path id="Vector_3" d="M50.2734 19.6439C50.2031 19.5031 50.1797 15.6071 50.2031 11.0306L50.2734 2.69899L51.1641 2.62858L52.0312 2.55817V3.80205V5.04592L52.5234 4.2949C53.1562 3.28572 55.1016 2.34694 56.4844 2.34694C59.8359 2.34694 61.7812 4.48266 62.0391 8.47246C62.3672 13.1194 60.2812 15.9592 56.5312 15.9592C55.2188 15.9592 53.9766 15.4194 52.9219 14.3633L52.0312 13.5184V16.7337V19.949H51.2109C50.7422 19.949 50.3203 19.8082 50.2734 19.6439ZM58.3125 13.8469C59.5078 13.1194 60.0938 11.5704 60.1172 9.15307C60.1172 5.72654 58.8047 3.9898 56.1797 3.9898C54.9141 3.9898 54.3281 4.2245 53.3672 5.11633C51.5625 6.80613 51.6328 11.5469 53.4844 13.3071C54.4453 14.199 54.6562 14.2694 56.25 14.2929C57.1641 14.3163 57.7734 14.1755 58.3125 13.8469Z" fill="#BDBDBD"/>
<path id="Vector_4" d="M63.2812 19.7847C63.2812 19.7143 64.6641 17.8133 66.3281 15.5602L69.375 11.5L66.2109 7.20511C64.4766 4.85817 63.0469 2.86327 63.0469 2.76939C63.0469 2.65205 63.5391 2.58164 64.1719 2.58164L65.2734 2.60511L67.9688 6.24286L70.6641 9.88062L71.1094 9.24695C71.3438 8.91837 72.6094 7.27552 73.875 5.60919L76.1953 2.58164H77.25H78.3047L71.7891 11.2653L65.2734 19.9255L64.2891 19.949C63.7266 19.949 63.2812 19.8786 63.2812 19.7847Z" fill="#BDBDBD"/>
<path id="Vector_5" d="M73.6406 16.9214C72.4453 15.2786 71.4844 13.8235 71.4844 13.7061C71.4844 13.5888 71.7187 13.1898 72.0234 12.8378L72.5391 12.1806L75.2344 15.7949C76.7109 17.7898 77.9531 19.55 78 19.6908C78.0469 19.8551 77.6719 19.949 76.9453 19.949H75.7969L73.6406 16.9214Z" fill="#BDBDBD"/>
<path id="Vector_6" d="M80.2734 19.6674C80.2031 19.5031 80.1797 15.6071 80.2031 11.0306L80.2734 2.69899L81.2578 2.62858L82.2656 2.55817L82.3125 9.52858L82.3828 16.4755L85.3125 9.52858L88.2188 2.55817L89.3906 2.62858L90.5625 2.69899L93.4219 9.57552C94.9922 13.3541 96.3281 16.5225 96.4219 16.5929C96.4922 16.6867 96.5625 13.5653 96.5625 9.66939V2.58164H97.5H98.4375V11.2653V19.949H97.0781H95.7188L92.5781 12.4153C89.8359 5.82041 89.3906 4.95205 89.1797 5.42143C89.0625 5.72654 87.6328 9.08266 86.0156 12.8847L83.0859 19.8316L81.7266 19.902C80.7891 19.949 80.3438 19.8786 80.2734 19.6674Z" fill="#BDBDBD"/>
<path id="Vector_7" d="M101.953 11.2418V2.5347L106.359 2.60511C110.602 2.69899 110.789 2.72246 112.078 3.35613C113.648 4.13062 114.68 5.23368 115.523 7.04082C116.297 8.73062 116.508 12.3918 115.922 14.3633C115.125 17.1796 113.086 19.151 110.508 19.6674C109.758 19.8316 107.531 19.949 105.539 19.949H101.953V11.2418ZM110.461 17.8133C111.562 17.5082 112.852 16.4051 113.438 15.2551C114.938 12.298 114.422 7.79184 112.336 5.82041C111.164 4.69388 110.227 4.45919 106.875 4.45919H103.828V11.2653V18.0714H106.711C108.281 18.0714 109.969 17.9541 110.461 17.8133Z" fill="#BDBDBD"/>
<path id="Vector_8" d="M1.38281 17.5316C0.46875 16.9214 -0.164062 15.4429 0.09375 14.4571C0.1875 14.1051 0.585938 13.448 1.00781 13.002C1.64063 12.298 1.99219 12.1571 3.1875 11.9694C5.03906 11.7112 5.74219 11.2418 6.23438 9.97449C6.60938 8.98878 6.60938 8.91837 6.11719 7.88571C5.55469 6.73571 4.54688 6.10204 3.23438 6.10204C1.64063 6.10204 0 4.6 0 3.09796C0 1.4551 1.45313 0 3.11719 0C5.15625 0 6.39844 1.57245 6.16406 3.87245C6 5.37449 6.46875 6.3602 7.59375 6.9C8.03906 7.11122 8.50781 7.27551 8.625 7.27551C9.02344 7.27551 9.84375 8.47245 9.84375 9.03571C9.84375 9.78673 9.02344 10.7255 8.08594 11.0306C7.64063 11.1714 7.00781 11.6173 6.67969 12.0163C6.16406 12.6265 6.09375 12.9082 6.14063 14.2694C6.1875 16.1235 5.74219 17.1796 4.6875 17.7194C3.67969 18.2357 2.32031 18.1653 1.38281 17.5316Z" fill="#BDBDBD"/>
<path id="Vector_9" d="M40.9687 15.7245C39.7734 15.3725 38.8828 14.6684 38.4375 13.7296C38.1797 13.1898 37.9687 12.6969 37.9687 12.6031C37.9687 12.5092 38.3906 12.4388 38.9062 12.4388C39.5391 12.4388 39.8437 12.5327 39.8437 12.7439C39.8437 12.9316 40.1016 13.3071 40.4297 13.6123C41.2266 14.3633 43.8281 14.5745 44.9531 13.9878C45.8437 13.5184 46.0781 13.1194 46.2891 11.7112L46.4531 10.6316L43.6641 10.5143C39.5156 10.3265 37.9453 9.45817 37.6172 7.18164C37.4062 5.82041 37.6406 4.8347 38.3672 3.96633C39.2344 2.93368 40.2187 2.51123 41.8125 2.51123C43.5 2.51123 44.7656 3.00409 45.7266 4.01327L46.4062 4.74082V3.66123C46.4062 2.58164 46.4062 2.58164 47.2266 2.58164H48.0469V7.60409C48.0469 10.6082 47.9531 12.9082 47.7891 13.3071C47.1562 14.9969 45.4453 15.9592 43.125 15.9357C42.2812 15.9357 41.3203 15.8418 40.9687 15.7245ZM46.4062 8.40205C46.3828 6.10205 45.375 4.71735 43.4062 4.2245C41.7891 3.84899 40.4531 4.2245 39.8203 5.23368C39.0469 6.47756 39.5625 8.14388 40.8984 8.70715C41.1562 8.80103 42.4922 8.8949 43.8984 8.8949C46.3594 8.91837 46.4062 8.8949 46.4062 8.40205Z" fill="#BDBDBD"/>
</g>
</svg>
